<?xml version="1.0" encoding="UTF-8" standalone="no"?>
<!DOCTYPE svg PUBLIC "-//W3C//DTD SVG 1.1//EN"
"http://www.w3.org/Graphics/SVG/1.1/DTD/svg11.dtd">
<svg viewBox="0 0 1466 825" version="1.1" xmlns="http://www.w3.org/2000/svg" xmlns:xlink="http://www.w3.org/1999/xlink">
<defs>
<clipPath id="c0_1"><path d="M0 825V0H1466.6V825Z"/></clipPath>
<clipPath id="c1_1"><path d="M0 825V0H1466.7V825Z"/></clipPath>
<style type="text/css"><![CDATA[
.g0_1{
fill: #FFF;
}
]]></style>
</defs>
<path clip-path="url(#c0_1)" fill-rule="evenodd" d="M0 0H1466.6V825H0V0Z" class="g0_1"/>
<image clip-path="url(#c1_1)" preserveAspectRatio="none" x="0" y="0" width="1467" height="825" xlink:href="img/1.jpg"/>
<g clip-path="url(#c0_1)" opacity="0.3">
<image preserveAspectRatio="none" x="0" y="0" width="1467" height="825" xlink:href="img/2.png"/>
</g>
<image x="13" y="0" width="4" height="263" xlink:href="shade/1.png"/>
<image x="4" y="261" width="23" height="24" xlink:href="shade/2.png"/>
<image x="3" y="483" width="24" height="24" xlink:href="shade/3.png"/>
<image x="24" y="0" width="45" height="219" xlink:href="shade/4.png"/>
<image x="60" y="216" width="24" height="24" xlink:href="shade/5.png"/>
<image x="34" y="0" width="45" height="173" xlink:href="shade/6.png"/>
<image x="65" y="0" width="20" height="110" xlink:href="shade/7.png"/>
<image x="70" y="170" width="24" height="24" xlink:href="shade/8.png"/>
<image x="70" y="108" width="24" height="24" xlink:href="shade/9.png"/>
<image x="77" y="0" width="51" height="64" xlink:href="shade/10.png"/>
<image x="123" y="58" width="19" height="19" xlink:href="shade/11.png"/>
<image x="1" y="216" width="15" height="17" xlink:href="shade/12.png"/>
<image x="-1" y="426" width="18" height="59" xlink:href="shade/13.png"/>
<image x="15" y="166" width="18" height="58" xlink:href="shade/14.png"/>
<image x="24" y="222" width="15" height="14" xlink:href="shade/15.png"/>
<image x="15" y="560" width="4" height="264" xlink:href="shade/16.png"/>
<image x="26" y="606" width="46" height="218" xlink:href="shade/17.png"/>
<image x="6" y="539" width="24" height="24" xlink:href="shade/18.png"/>
<image x="-1" y="676" width="10" height="148" xlink:href="shade/19.png"/>
<image x="63" y="585" width="24" height="24" xlink:href="shade/20.png"/>
<image x="37" y="652" width="46" height="172" xlink:href="shade/21.png"/>
<image x="68" y="715" width="19" height="110" xlink:href="shade/22.png"/>
<image x="73" y="631" width="24" height="24" xlink:href="shade/23.png"/>
<image x="73" y="693" width="24" height="24" xlink:href="shade/24.png"/>
<image x="80" y="761" width="51" height="63" xlink:href="shade/25.png"/>
<image x="126" y="748" width="19" height="19" xlink:href="shade/26.png"/>
<g clip-path="url(#c0_1)">
<image preserveAspectRatio="none" x="1381" y="0" width="51" height="62" xlink:href="img/3.png"/>
<image preserveAspectRatio="none" x="1368" y="57" width="18" height="18" xlink:href="img/4.png"/>
<image preserveAspectRatio="none" x="1399" y="185" width="23" height="23" xlink:href="img/5.png"/>
<image preserveAspectRatio="none" x="1387" y="685" width="36" height="139" xlink:href="img/6.png"/>
<image preserveAspectRatio="none" x="1416" y="668" width="19" height="19" xlink:href="img/7.png"/>
<image preserveAspectRatio="none" x="1409" y="1" width="37" height="185" xlink:href="img/8.png"/>
<image preserveAspectRatio="none" x="1400" y="585" width="23" height="23" xlink:href="img/9.png"/>
<image preserveAspectRatio="none" x="1376" y="607" width="37" height="217" xlink:href="img/10.png"/>
<image preserveAspectRatio="none" x="1425" y="772" width="23" height="23" xlink:href="img/11.png"/>
<image preserveAspectRatio="none" x="1436" y="793" width="3" height="31" xlink:href="img/12.png"/>
<image preserveAspectRatio="none" x="86" y="234" width="1236" height="570" xlink:href="img/13.jpg"/>
</g>
</svg>